{"glyphs":{":":{"x_min":0,"x_max":279,"ha":279,"o":"m 89 -2 q 57 -2 57 40 l 58 41 l 58 49 q 59 57 59 58 q 59 81 76 95 q 93 108 116 108 l 121 108 q 167 108 167 72 l 167 58 l 165 45 q 165 31 151 14 q 138 -2 119 -2 l 108 -3 l 100 -3 l 98 -3 l 94 -3 q 91 -2 89 -2 z m 184 440 l 199 440 l 210 438 q 240 438 240 400 l 240 393 l 238 378 q 238 363 224 347 q 210 330 191 330 l 180 329 l 174 329 l 172 329 q 132 329 132 355 l 130 363 l 130 366 l 130 372 l 130 374 l 130 375 l 132 391 q 132 406 146 423 q 161 440 184 440 z"},"$":{"x_min":0,"x_max":521,"ha":521,"o":"m 373 161 l 373 176 q 373 205 349 240 q 324 275 301 275 l 299 275 q 293 275 290 261 q 240 62 240 37 q 240 33 244 33 l 250 33 q 300 33 336 74 q 373 115 373 161 z m 202 490 l 202 473 q 202 443 227 414 q 252 386 271 386 l 273 386 q 275 386 280 404 l 285 435 l 286 438 l 287 443 l 295 481 q 296 486 297 489 q 297 492 299 504 q 301 517 312 554 q 322 591 322 595 q 322 600 315 600 l 312 599 l 310 599 l 298 598 q 264 598 233 562 q 202 527 202 490 z m 255 255 q 255 278 247 290 q 239 303 205 331 q 134 388 134 458 l 133 458 q 133 528 189 579 q 227 614 272 626 q 317 638 322 641 q 327 644 342 674 q 356 705 366 705 l 373 705 q 382 705 386 680 q 390 656 394 651 l 430 625 q 443 616 456 610 q 485 598 485 552 l 486 551 q 486 507 464 507 q 453 507 432 545 q 412 584 379 584 q 359 584 342 527 q 311 424 311 381 q 311 368 354 336 q 396 304 413 283 q 444 244 444 184 q 444 124 399 73 q 354 22 285 5 q 244 -4 242 -6 q 227 -14 215 -48 q 203 -82 189 -82 q 174 -82 174 -62 l 176 -49 l 177 -36 q 177 1 106 16 q 78 22 71 27 q 47 43 47 85 l 47 97 q 47 130 64 146 l 75 150 q 88 150 100 120 q 128 49 175 49 q 197 49 207 70 q 217 90 236 171 q 255 251 255 255 z"},"?":{"x_min":0,"x_max":448,"ha":448,"o":"m 107 30 l 107 42 l 109 54 q 109 74 126 87 q 142 100 168 100 q 214 100 214 64 l 214 51 l 212 39 q 212 27 199 12 q 187 -3 171 -3 q 167 -4 166 -4 l 159 -5 l 147 -5 l 135 -3 q 107 -3 107 30 z m 291 672 q 355 672 399 635 q 444 597 444 539 q 444 481 416 439 q 388 398 327 352 q 265 307 248 287 q 230 267 225 225 q 220 184 203 184 l 197 184 q 170 184 170 251 q 170 280 194 312 q 219 344 264 383 q 360 465 360 535 q 360 572 335 592 q 310 611 271 611 q 231 611 204 578 q 178 544 155 544 q 140 544 140 566 l 140 572 q 140 615 184 644 q 228 672 282 672 z"},"<":{"x_min":0,"x_max":561,"ha":561,"o":"m 501 476 l 501 468 q 501 445 448 415 q 420 398 287 334 q 154 269 154 267 q 154 259 286 191 q 418 124 452 102 q 487 81 487 56 q 487 32 480 32 l 474 32 q 471 32 153 196 q 71 238 71 256 q 71 287 93 299 q 143 326 453 477 q 486 493 494 493 q 501 493 501 476 z"},"'":{"x_min":0,"x_max":232,"ha":232,"o":"m 205 695 l 214 695 q 243 695 243 678 l 243 670 q 243 625 189 478 q 179 449 161 449 l 158 449 q 142 449 142 461 l 142 473 l 145 505 q 147 518 147 521 l 148 533 q 151 548 151 555 l 152 564 l 152 570 l 153 576 l 155 595 l 156 607 q 159 625 159 633 l 161 647 q 161 671 173 683 q 185 695 205 695 z"},"=":{"x_min":0,"x_max":561,"ha":561,"o":"m 175 210 l 458 210 l 462 210 l 492 209 q 497 209 501 209 q 516 209 516 193 l 516 179 q 516 157 503 155 q 489 152 290 152 l 279 152 l 259 152 l 113 152 q 70 152 70 169 l 70 184 q 70 206 81 208 q 91 210 175 210 z m 279 381 l 490 381 q 522 381 522 367 l 522 353 q 522 329 513 326 q 505 323 294 323 l 273 322 l 172 322 q 76 322 76 336 l 76 346 l 76 351 q 76 376 89 379 q 101 381 279 381 z"},"a":{"x_min":0,"x_max":500,"ha":500,"o":"m 150 44 l 157 44 q 185 44 225 77 q 308 144 341 262 q 358 320 358 346 q 358 371 343 388 q 327 404 298 404 l 289 404 q 260 404 227 381 q 195 357 172 319 q 107 213 107 128 l 107 110 q 107 78 119 61 q 131 44 150 44 z m 290 439 q 317 439 346 426 q 375 414 378 414 q 382 414 400 427 q 418 441 428 441 q 451 441 451 418 q 451 406 412 279 q 373 152 373 103 q 373 74 414 74 q 439 74 439 62 q 439 43 407 24 q 374 5 351 5 q 328 5 319 19 q 311 32 311 64 q 311 96 302 96 q 302 96 301 96 q 292 96 265 68 q 198 2 131 1 l 123 1 q 82 1 58 32 q 35 63 35 107 l 35 117 q 35 172 60 229 q 110 350 196 407 q 245 439 290 439 z"},"L":{"x_min":0,"x_max":555,"ha":555,"o":"m 183 623 q 144 638 144 653 q 144 668 171 668 l 185 668 l 199 667 l 270 667 q 388 667 388 653 q 388 644 350 627 q 312 610 297 571 q 282 533 234 319 q 186 104 186 83 q 186 62 210 54 q 228 48 296 48 q 364 48 397 64 q 430 81 458 117 q 500 174 512 174 q 524 174 524 153 q 524 113 492 34 q 483 14 466 7 q 449 0 219 0 l 111 0 l 67 0 q 18 0 18 14 l 18 21 q 18 24 62 52 q 89 69 100 103 q 110 136 158 353 q 206 570 206 592 q 206 614 183 623 z"},"3":{"x_min":0,"x_max":518,"ha":518,"o":"m 359 197 q 359 280 247 310 q 197 323 197 338 q 197 349 251 371 q 305 392 333 416 q 387 460 387 499 q 387 538 357 560 q 327 583 282 583 q 238 583 199 552 q 160 522 153 522 q 147 522 147 537 q 147 552 165 578 q 182 604 219 624 q 256 644 323 644 q 391 644 436 618 q 481 592 481 557 l 481 542 q 481 467 387 396 q 345 363 345 351 q 345 348 376 326 q 407 305 425 274 q 443 244 443 198 q 443 152 421 110 q 377 26 282 -9 q 232 -28 188 -28 l 171 -28 q 102 -28 64 -2 q 27 23 27 67 q 27 91 50 91 q 66 91 85 69 q 122 25 197 25 q 271 25 320 83 q 359 127 359 197 z"},";":{"x_min":0,"x_max":279,"ha":279,"o":"m 167 71 l 167 64 q 167 15 133 -35 q 98 -85 69 -105 q 39 -125 28 -125 l 25 -125 q 12 -125 12 -110 q 12 -108 31 -89 q 51 -69 60 -59 q 86 -26 86 6 q 86 16 76 31 q 65 47 65 65 q 65 83 81 99 q 96 114 125 114 l 128 114 q 149 114 158 104 q 167 93 167 71 z m 197 443 q 239 443 239 415 l 240 408 l 240 404 l 241 399 l 241 397 l 240 395 l 240 390 q 239 382 239 380 q 239 366 225 349 q 211 333 194 333 l 183 331 l 171 331 q 134 331 134 356 q 132 361 132 363 l 131 375 l 131 376 l 132 384 l 133 397 q 133 403 150 429 q 159 441 176 441 q 180 442 181 442 l 189 443 z"},"J":{"x_min":0,"x_max":460,"ha":460,"o":"m 236 632 q 236 667 395 667 l 421 667 q 482 667 482 648 q 482 641 463 627 q 444 613 435 588 q 393 467 377 339 q 374 316 364 285 q 354 254 338 191 q 323 128 291 70 q 260 13 207 -23 q 154 -60 101 -60 q 47 -60 20 -40 q -7 -21 -7 14 l -7 23 q -7 62 25 62 q 47 62 66 45 q 85 28 104 28 q 139 28 188 81 q 212 107 243 184 q 274 261 295 371 q 315 480 315 569 q 315 588 307 595 q 299 603 268 611 q 236 620 236 632 z"},"V":{"x_min":0,"x_max":641,"ha":641,"o":"m 304 651 q 304 643 287 631 q 271 620 264 607 q 257 594 257 555 q 257 353 293 132 l 296 119 q 319 119 501 456 q 565 575 565 601 q 565 616 550 630 q 534 644 534 646 q 534 669 613 669 l 665 669 q 717 669 717 650 q 717 632 684 615 q 652 597 638 578 q 625 560 484 325 q 343 90 332 72 q 285 -2 258 -2 q 230 -2 224 32 q 217 66 193 302 q 170 539 161 577 q 155 602 127 615 q 99 628 99 645 q 99 662 173 662 l 207 663 l 240 663 q 304 663 304 651 z"},"\"":{"x_min":0,"x_max":381,"ha":381,"o":"m 203 695 l 215 695 q 241 695 241 676 l 241 673 q 241 625 188 478 q 177 449 159 449 l 156 449 q 140 449 140 458 l 140 473 q 151 548 151 567 l 153 591 l 153 594 l 155 612 q 157 624 157 630 l 158 641 q 158 695 203 695 z m 391 679 l 391 671 q 391 625 336 473 q 327 449 309 449 l 307 449 q 291 449 291 458 l 291 473 q 292 481 293 490 q 293 498 296 516 q 298 534 299 541 q 299 549 300 554 q 301 567 301 570 l 303 594 l 304 597 l 305 615 q 309 636 309 644 q 309 695 353 695 l 365 695 q 391 695 391 679 z"},"7":{"x_min":0,"x_max":514,"ha":514,"o":"m 533 616 q 533 616 184 6 q 167 -23 140 -23 l 128 -23 q 106 -23 106 -12 l 106 -3 q 106 35 272 280 q 437 525 437 551 q 437 555 420 563 q 404 572 331 572 q 257 572 216 560 q 175 548 143 513 q 129 499 123 499 q 109 499 109 513 q 109 565 143 621 q 155 641 186 641 l 231 637 l 384 640 q 533 640 533 616 z"},"S":{"x_min":0,"x_max":517,"ha":517,"o":"m 69 185 q 81 185 95 138 q 110 91 134 71 q 173 39 237 39 q 300 39 340 76 q 381 113 381 177 q 381 219 343 256 q 322 276 257 313 q 192 351 164 383 q 125 427 125 487 q 125 563 183 617 q 212 645 253 660 q 294 676 332 676 l 349 676 q 367 676 412 666 q 458 655 484 655 q 514 655 514 626 l 514 612 q 514 561 499 520 q 491 500 475 500 q 466 500 455 539 q 443 577 427 594 q 395 627 335 627 q 274 627 240 592 q 205 556 205 511 q 205 467 232 437 q 250 418 324 375 q 398 331 424 301 q 461 258 461 196 q 461 110 396 50 q 331 -10 233 -10 q 192 -10 146 3 q 100 16 66 16 q 32 16 32 55 l 32 69 q 32 122 46 163 q 54 185 69 185 z"},"}":{"x_min":0,"x_max":365,"ha":365,"o":"m -17 -150 q -17 -141 38 -109 q 69 -92 91 -57 q 113 -21 129 75 q 145 172 161 207 q 177 241 215 262 q 240 276 240 278 q 240 279 225 293 q 210 307 201 322 q 191 338 191 366 q 191 395 209 472 q 227 548 227 583 q 227 617 214 635 q 202 654 180 671 q 157 689 157 701 q 157 709 183 709 q 240 709 272 677 q 303 646 303 602 q 303 558 281 477 q 259 396 259 368 q 259 323 296 300 q 323 284 323 283 l 323 274 l 268 243 q 240 227 229 203 q 217 179 200 67 q 182 -44 156 -82 q 129 -119 90 -138 q 51 -156 17 -156 q -17 -156 -17 -150 z"},"Z":{"x_min":0,"x_max":592,"ha":592,"o":"m 488 603 q 488 617 379 617 q 271 617 231 597 q 208 585 178 545 q 148 504 133 504 q 126 504 126 524 q 126 544 141 594 q 157 644 171 655 q 186 666 377 666 l 457 665 q 469 665 495 666 l 534 667 l 553 667 q 607 667 607 650 q 607 625 371 345 q 136 65 136 59 q 136 48 258 48 q 381 48 417 63 q 454 79 489 122 q 523 166 532 166 q 541 166 541 146 q 541 85 504 25 q 486 -4 433 -4 l 358 -4 l 97 0 q 34 0 25 5 q 16 10 16 25 q 16 40 252 320 q 488 601 488 603 z"},"x":{"x_min":0,"x_max":491,"ha":491,"o":"m 68 0 q 10 0 10 38 q 10 55 48 63 q 85 71 119 105 q 208 193 208 237 q 208 280 166 343 q 146 373 113 373 q 80 373 80 389 q 80 400 102 412 q 157 441 180 441 q 203 441 213 426 q 215 423 244 364 q 273 306 280 306 q 287 306 363 390 q 410 442 428 442 q 445 442 461 431 q 476 420 476 410 q 476 390 436 379 q 396 368 346 312 q 297 257 297 215 q 297 173 335 108 q 358 68 384 68 l 430 77 q 439 77 439 72 q 439 51 401 26 q 363 1 325 1 q 304 1 278 53 q 271 69 251 114 q 232 158 227 158 q 208 158 148 79 q 88 0 68 0 z"},")":{"x_min":0,"x_max":348,"ha":348,"o":"m 224 412 q 224 490 204 564 q 197 589 174 638 q 151 687 151 692 q 151 706 167 706 q 176 706 200 683 q 225 661 260 583 q 296 505 296 408 l 296 365 q 296 215 203 51 q 163 -21 88 -92 q 14 -164 -24 -164 q -32 -164 -32 -153 q -32 -147 12 -103 q 56 -59 92 -11 q 127 36 161 113 q 224 258 224 412 z"},"&":{"x_min":0,"x_max":703,"ha":703,"o":"m 114 171 l 114 157 q 114 103 151 66 q 188 28 237 28 l 250 28 q 289 28 333 58 q 377 88 377 117 q 377 119 289 277 q 257 334 238 334 l 235 334 q 201 334 149 268 q 114 223 114 171 z m 423 559 q 423 588 406 607 q 390 625 365 625 l 353 625 q 319 625 289 595 q 258 564 258 519 l 258 500 q 258 468 285 419 q 292 406 305 406 l 308 406 q 337 406 393 469 q 422 501 422 536 l 423 542 z m 225 9 l 208 9 q 139 9 94 46 q 50 83 50 140 l 50 156 q 50 210 81 256 q 113 303 163 336 q 213 370 213 387 l 212 399 q 210 412 208 426 l 206 441 l 202 458 q 198 479 198 492 q 198 559 233 601 q 269 644 332 644 q 395 644 423 612 q 451 580 451 526 q 451 447 395 384 q 378 366 362 355 q 345 345 345 341 q 345 319 395 268 q 445 216 464 216 q 483 216 518 254 q 552 292 552 313 q 552 320 547 325 l 540 333 q 540 345 591 345 q 643 345 643 336 q 643 327 632 319 l 613 311 q 604 306 596 295 q 507 166 507 133 q 507 101 542 63 q 558 45 591 42 q 605 41 605 30 q 605 28 596 28 l 563 27 q 556 27 536 39 q 517 51 506 51 q 496 51 480 47 q 465 42 452 41 q 438 39 429 36 q 420 34 357 21 q 293 9 225 9 z"},"_":{"x_min":0,"x_max":514,"ha":514,"o":"m 450 -122 l 45 -122 q -19 -122 -23 -120 q -28 -118 -28 -104 l -28 -98 l -28 -92 q -28 -67 0 -67 l 11 -66 l 34 -66 l 291 -66 l 296 -66 l 439 -66 l 473 -66 q 489 -66 489 -84 l 488 -90 l 488 -95 q 488 -112 484 -117 q 480 -122 450 -122 z"},"v":{"x_min":0,"x_max":493,"ha":493,"o":"m 442 447 q 462 447 476 434 q 490 421 490 401 q 490 380 475 358 q 460 335 445 303 q 374 145 266 49 q 219 7 193 7 q 152 7 139 38 q 133 54 133 130 l 134 167 q 134 179 134 191 l 135 215 l 135 239 q 135 297 118 352 q 110 376 83 376 q 56 376 56 387 q 56 397 66 404 q 111 435 163 435 q 189 435 194 412 q 203 365 203 226 q 203 86 215 86 q 223 86 247 105 q 297 145 336 204 q 396 295 396 362 q 396 372 385 389 q 375 405 375 413 q 375 420 383 429 q 402 447 431 447 z"},"O":{"x_min":0,"x_max":718,"ha":718,"o":"m 459 630 l 442 630 q 396 630 345 600 q 241 537 191 382 q 169 313 169 242 l 169 234 q 169 142 211 89 q 253 36 327 36 q 440 36 523 154 q 561 208 584 280 q 608 353 608 417 l 608 441 q 608 527 565 579 q 523 630 459 630 z m 699 425 l 699 415 q 699 347 670 268 q 642 189 587 125 q 533 62 463 26 q 394 -10 329 -10 l 297 -10 q 248 -10 207 11 q 124 53 95 138 q 78 189 78 241 l 78 251 q 78 333 112 413 q 181 574 321 644 q 387 677 459 677 l 470 677 q 518 677 560 659 q 647 624 682 528 q 699 480 699 425 z"},"(":{"x_min":0,"x_max":348,"ha":348,"o":"m 407 692 q 407 690 361 645 q 315 599 281 552 q 247 506 215 435 q 150 290 150 125 q 150 52 163 4 q 177 -43 199 -93 q 222 -143 222 -144 q 222 -163 204 -163 q 199 -163 183 -150 q 149 -124 113 -40 q 77 43 77 138 l 77 170 q 77 247 102 330 q 153 506 273 622 q 360 706 394 706 q 407 706 407 692 z"},"C":{"x_min":0,"x_max":639,"ha":639,"o":"m 651 602 q 651 492 617 492 q 607 492 591 534 q 574 576 551 593 q 510 625 451 625 q 332 625 245 516 q 159 407 159 255 q 159 161 209 104 q 259 48 340 48 q 421 48 497 103 q 554 144 566 144 q 578 144 578 133 q 578 108 555 77 q 532 46 509 31 q 487 16 430 2 q 374 -11 342 -11 l 326 -11 q 209 -11 138 62 q 67 135 67 254 q 67 337 98 415 q 129 494 181 551 q 234 608 303 641 q 373 675 441 675 l 457 675 q 513 675 581 655 q 595 651 608 649 l 642 645 q 651 639 651 616 z"},"W":{"x_min":0,"x_max":902,"ha":902,"o":"m 147 637 q 279 637 300 616 l 303 606 q 303 602 288 584 q 273 567 267 553 q 262 538 262 496 l 264 451 q 264 436 264 381 l 261 263 q 261 194 271 194 q 287 194 384 363 q 413 413 461 520 l 479 561 l 490 583 q 522 639 563 639 q 580 639 592 611 q 604 583 604 538 q 604 493 607 451 l 613 398 l 615 370 l 614 342 l 613 236 q 613 179 617 179 l 623 184 q 664 231 736 380 q 807 529 807 587 l 803 601 q 796 623 796 627 q 796 640 822 651 q 847 662 910 662 l 935 662 q 962 662 962 648 q 962 638 940 622 q 917 605 910 594 l 899 573 l 889 549 q 870 506 855 478 l 813 401 l 787 348 q 651 83 639 63 q 614 25 586 25 q 567 25 557 44 q 531 90 523 299 q 518 413 506 456 l 500 470 q 490 470 430 354 q 371 237 321 158 q 250 46 223 46 q 190 46 182 80 l 178 106 l 176 133 q 166 256 166 302 l 172 461 l 173 486 l 174 512 q 174 558 168 578 q 162 597 143 606 q 125 614 125 626 q 125 637 147 637 z"},"A":{"x_min":0,"x_max":648,"ha":648,"o":"m 276 282 l 366 282 q 438 282 438 296 l 438 300 l 438 303 l 437 319 q 434 341 434 348 q 434 355 432 371 q 431 386 430 391 l 429 408 q 427 419 426 430 q 425 440 424 450 q 423 460 423 464 l 421 485 q 417 518 417 539 q 417 561 410 561 l 408 561 q 405 561 373 501 q 341 441 296 367 q 251 292 251 289 l 251 286 q 251 282 276 282 z m -22 12 l -22 21 q -22 32 12 49 q 47 65 67 93 q 87 121 192 294 q 297 468 329 531 q 361 595 366 602 q 400 659 441 659 q 468 659 482 597 q 488 575 499 476 q 511 377 516 343 q 521 309 535 206 q 549 104 553 85 q 558 67 583 53 q 608 39 608 29 q 608 13 594 10 q 580 6 490 6 q 399 6 399 25 q 399 29 418 41 q 437 52 444 69 q 451 86 451 134 q 451 221 430 234 q 418 242 330 242 q 241 242 220 229 q 208 222 174 158 q 139 94 139 72 q 139 50 155 36 q 170 22 170 15 q 170 2 105 2 l 76 1 l 32 1 q -22 1 -22 12 z"},"f":{"x_min":0,"x_max":319,"ha":319,"o":"m 452 655 q 452 637 441 628 q 430 619 420 619 q 410 619 388 631 q 366 644 350 644 q 309 644 280 593 q 252 542 252 483 q 252 462 263 453 q 275 444 302 439 q 330 434 330 424 q 330 408 277 390 q 261 384 250 375 q 221 350 205 308 q 201 300 185 223 q 128 -35 88 -97 q 72 -122 44 -138 q 17 -155 -9 -155 q -34 -155 -46 -144 q -58 -134 -58 -128 q -58 -104 -32 -104 q -6 -104 17 -74 q 41 -45 58 6 q 76 56 100 176 q 125 296 125 326 q 125 355 115 380 q 105 405 98 411 q 91 417 91 420 q 91 427 118 443 q 146 460 158 478 q 162 484 174 513 q 187 542 205 578 q 223 613 256 644 q 289 675 323 687 q 357 700 390 700 q 424 700 438 688 q 452 677 452 667 z"},"Q":{"x_min":0,"x_max":716,"ha":716,"o":"m 431 590 l 416 590 q 375 590 329 563 q 234 507 190 373 q 167 304 167 242 l 167 233 q 167 147 205 96 q 242 45 301 45 l 308 45 l 315 46 q 367 46 402 75 q 438 105 511 212 q 567 295 567 396 l 567 420 q 567 493 531 542 q 495 590 431 590 z m 133 352 l 133 380 q 133 465 183 517 q 269 604 310 630 q 351 655 405 655 q 460 655 512 634 q 664 572 664 377 q 664 296 621 219 q 591 167 517 99 q 443 30 443 4 q 443 -14 528 -65 q 575 -94 608 -94 l 640 -87 q 659 -84 665 -83 q 670 -81 672 -81 q 677 -81 677 -89 q 677 -107 628 -126 q 579 -145 534 -145 q 489 -145 431 -120 q 291 -60 193 -9 q 161 8 161 65 q 159 104 159 114 q 159 123 152 162 q 145 201 139 242 q 133 284 133 352 z"},"w":{"x_min":0,"x_max":723,"ha":723,"o":"m 470 99 q 472 99 488 109 q 524 133 573 211 q 623 289 623 348 l 622 362 q 621 381 621 396 q 621 412 633 423 q 646 435 676 435 q 706 435 706 408 q 706 397 698 382 q 691 367 678 329 q 643 227 591 145 q 540 62 514 38 q 488 14 457 14 q 425 14 410 51 q 396 87 382 166 q 368 244 359 244 q 355 244 322 195 q 289 146 242 97 q 196 48 169 48 q 142 48 133 70 q 129 78 129 155 q 129 231 124 257 q 118 282 100 327 q 82 373 75 385 q 68 398 68 401 q 68 422 87 430 q 105 438 150 438 q 211 438 211 401 q 211 388 208 373 l 203 357 q 198 339 193 312 q 188 284 188 209 q 188 94 209 94 q 231 94 276 170 q 321 246 348 315 q 375 384 388 403 q 402 422 420 422 q 439 422 445 410 q 457 385 457 324 l 454 165 q 454 99 470 99 z"},"-":{"x_min":0,"x_max":350,"ha":350,"o":"m 300 278 q 312 278 312 272 l 312 267 q 312 227 295 219 q 288 216 171 216 l 86 216 l 77 216 l 70 216 q 52 216 52 224 l 52 227 q 52 269 69 274 q 81 278 191 278 l 242 278 z"},"E":{"x_min":0,"x_max":591,"ha":591,"o":"m 24 32 q 24 39 57 54 q 90 69 108 115 q 125 161 163 354 q 200 548 200 571 q 200 593 187 604 q 187 604 166 614 q 145 623 145 630 q 145 648 194 652 q 357 665 451 665 q 545 665 558 660 q 581 650 581 608 l 581 573 q 581 536 567 536 q 562 536 549 566 q 535 596 510 605 q 484 614 398 614 q 352 614 326 580 q 300 546 281 494 q 262 441 262 426 q 262 410 288 397 q 314 383 340 383 q 366 383 389 398 q 439 430 440 430 q 460 430 460 382 q 460 334 443 287 q 431 255 412 255 q 402 255 386 278 q 370 300 357 307 q 344 313 308 313 q 255 313 230 278 q 220 264 209 210 q 198 157 198 126 q 198 78 225 61 q 243 50 311 50 q 378 50 413 62 q 447 73 483 108 q 518 142 520 142 q 528 142 528 126 q 528 110 509 71 q 491 31 470 15 q 449 0 399 0 l 190 0 q 82 0 53 7 q 24 13 24 32 z"},"s":{"x_min":0,"x_max":393,"ha":393,"o":"m 99 56 q 125 37 166 37 q 208 37 234 57 q 260 77 260 108 q 260 138 237 161 q 228 170 177 203 q 126 236 107 261 q 87 286 87 324 q 87 376 135 416 q 182 455 251 455 q 321 455 354 434 q 371 423 371 394 q 371 365 362 350 q 353 335 342 335 q 331 335 316 361 q 302 387 286 397 q 270 407 235 407 q 201 407 178 388 q 156 369 156 342 q 156 314 179 292 q 188 284 239 253 q 290 223 311 198 q 331 172 331 125 q 331 78 283 34 q 235 -9 163 -9 l 151 -9 q 78 -9 37 15 q 18 26 18 58 q 18 91 27 107 q 36 123 48 123 q 60 123 73 94 q 86 65 99 56 z"},">":{"x_min":0,"x_max":561,"ha":561,"o":"m 80 52 l 80 61 q 80 81 134 112 q 156 125 292 191 q 428 257 428 260 q 428 270 293 336 q 159 402 126 425 q 94 447 94 470 q 94 492 102 493 l 109 493 q 133 493 480 303 q 511 287 511 268 q 511 241 494 231 q 438 200 265 116 q 92 32 86 32 q 80 32 80 52 z"},"l":{"x_min":0,"x_max":282,"ha":282,"o":"m 130 668 q 130 700 249 700 l 257 700 q 278 700 278 673 q 278 672 213 408 q 149 144 149 103 q 149 61 180 61 q 191 61 202 64 q 212 68 218 68 q 223 68 223 60 q 223 52 201 37 q 146 0 99 0 l 90 0 q 78 0 64 11 q 51 22 51 42 l 51 50 q 51 66 70 131 q 88 195 102 253 l 112 294 q 113 298 115 308 q 117 318 121 335 q 184 591 184 624 q 184 641 164 650 q 130 666 130 668 z"},"8":{"x_min":0,"x_max":528,"ha":528,"o":"m 226 36 l 235 36 l 240 37 q 296 37 338 82 q 380 127 380 188 l 380 191 q 380 240 348 275 q 304 323 264 323 l 255 323 q 214 323 169 266 q 125 208 125 154 l 125 140 q 125 95 154 66 q 184 36 226 36 z m 220 481 q 220 453 252 417 q 284 382 320 382 q 355 382 394 430 q 433 478 433 532 l 433 540 q 433 576 410 602 q 386 628 351 628 l 333 628 q 288 628 254 591 q 220 553 220 513 l 219 506 l 219 492 q 220 485 220 481 z m 142 487 q 142 521 158 556 q 191 628 276 659 q 313 673 352 673 l 363 673 q 426 673 467 635 q 507 597 507 547 l 507 546 l 507 545 q 507 460 435 401 q 425 393 401 377 q 377 362 377 355 q 377 353 404 326 q 431 299 446 273 q 461 246 461 205 q 461 122 396 60 q 363 27 318 10 q 273 -8 236 -8 l 213 -8 q 138 -8 93 35 q 48 79 48 140 q 48 240 146 311 q 208 356 208 359 l 182 387 q 142 430 142 487 z"},"\\":{"x_min":0,"x_max":461,"ha":461,"o":"m 104 679 q 104 696 130 696 q 160 696 177 646 q 272 379 380 23 q 398 -37 398 -41 q 398 -58 372 -58 q 345 -58 329 -17 q 327 -12 249 230 q 170 471 137 571 q 104 670 104 679 z"},"e":{"x_min":0,"x_max":441,"ha":441,"o":"m 354 356 q 354 379 339 395 q 324 410 306 410 l 300 411 l 291 411 q 248 411 204 367 q 145 308 145 269 l 145 267 l 145 264 l 145 262 q 145 249 162 249 l 165 249 l 178 250 q 233 250 314 287 q 354 305 354 336 l 354 342 z m 307 455 l 317 455 q 366 455 396 429 q 427 403 427 362 l 427 353 q 427 292 372 260 q 317 228 208 215 q 158 209 150 207 q 121 197 121 149 q 121 102 148 76 q 174 50 213 50 q 251 50 296 71 q 308 77 333 92 q 359 106 365 106 q 380 106 380 92 q 380 67 314 31 q 249 -6 197 -6 l 187 -6 q 120 -6 82 38 q 43 81 43 145 q 43 267 124 358 q 167 405 215 430 q 263 455 307 455 z"},"b":{"x_min":0,"x_max":510,"ha":510,"o":"m 214 37 l 223 37 q 282 37 342 115 q 370 152 388 206 q 406 260 406 296 l 406 320 q 406 354 389 375 q 373 396 351 396 l 338 396 q 312 396 277 372 q 202 320 163 209 q 146 159 146 119 l 146 96 q 146 75 165 56 q 184 37 214 37 z m 87 197 q 181 611 181 622 q 181 632 158 645 q 136 658 136 664 q 136 699 228 699 q 270 699 270 665 q 270 646 260 611 q 249 576 232 503 q 215 429 215 420 q 215 387 231 387 q 239 387 261 399 q 322 432 373 432 q 423 432 452 396 q 480 360 480 303 q 480 247 456 188 q 406 69 315 23 q 271 0 228 0 l 217 0 q 193 0 165 12 q 137 24 131 24 l 94 17 q 78 17 66 33 q 54 49 54 71 q 54 92 69 141 q 85 189 87 197 z"},"%":{"x_min":0,"x_max":802,"ha":802,"o":"m 679 229 q 679 256 666 275 q 653 293 632 293 l 628 293 l 625 293 q 586 293 558 243 q 519 177 519 110 l 519 104 q 519 76 531 55 q 542 34 564 34 l 574 34 q 610 34 639 81 q 678 143 678 196 l 679 203 l 679 213 z m 338 556 l 338 573 q 338 603 325 621 q 312 640 291 640 l 287 640 l 284 639 q 246 639 212 582 q 178 524 178 463 l 178 443 q 178 417 191 399 q 205 380 223 380 l 233 380 q 273 380 300 430 q 338 501 338 556 z m 632 334 l 647 334 q 689 334 717 304 q 746 273 746 226 l 746 210 q 745 177 730 134 q 700 45 623 7 q 594 -8 567 -8 l 552 -8 q 513 -8 483 22 q 454 52 454 102 l 454 117 q 454 194 502 257 q 527 290 561 312 q 596 334 632 334 z m 722 660 q 722 643 246 68 q 195 6 167 6 l 158 6 q 139 6 139 12 q 139 21 634 623 q 669 666 695 666 l 704 666 q 722 666 722 660 z m 291 681 l 306 681 q 348 681 376 650 q 404 620 404 577 l 404 551 q 404 518 388 475 q 354 389 286 355 q 253 338 226 338 l 211 338 q 172 338 142 368 q 112 398 112 453 l 112 458 l 113 463 q 113 541 164 608 q 187 638 222 659 q 257 681 291 681 z"},"m":{"x_min":0,"x_max":792,"ha":792,"o":"m 629 310 q 629 376 591 376 q 552 376 504 309 q 456 242 436 176 q 433 167 424 121 q 416 76 396 43 q 377 10 334 10 q 308 10 308 36 q 308 52 325 103 q 343 154 348 174 q 381 301 381 342 q 381 358 370 369 q 358 380 335 380 q 312 380 277 354 q 242 327 214 288 q 186 249 152 138 q 118 27 96 27 q 82 27 82 75 q 82 187 98 250 q 103 269 103 304 l 104 318 q 107 339 107 345 l 106 355 q 106 361 106 373 q 106 385 116 398 q 126 412 152 412 q 177 412 181 386 q 187 354 208 354 q 212 354 274 398 q 336 441 378 441 q 420 441 442 415 q 451 403 460 374 q 469 345 477 345 l 517 376 q 583 428 639 428 q 719 428 719 328 q 719 299 702 227 q 686 154 686 125 q 686 61 710 61 q 717 61 717 56 q 717 51 709 45 q 680 24 652 24 q 624 24 611 46 q 598 68 598 93 q 598 118 614 190 q 629 263 629 310 z"},"#":{"x_min":0,"x_max":571,"ha":571,"o":"m 230 268 l 257 268 l 260 268 l 285 269 q 345 269 352 278 l 359 298 l 361 303 l 363 309 l 367 322 l 371 333 q 372 336 373 339 q 374 342 385 371 q 397 401 397 410 l 397 412 q 397 414 389 414 l 375 414 l 373 414 l 359 414 l 351 413 l 340 413 q 280 413 272 403 q 265 393 256 362 q 248 332 238 303 q 228 275 228 273 l 228 270 q 228 268 230 268 z m 120 436 q 120 457 142 463 q 242 493 242 493 q 247 501 266 562 q 286 624 297 642 q 308 660 328 660 q 348 660 348 648 q 348 636 325 564 q 302 492 302 487 q 302 469 381 469 q 411 469 420 486 q 422 489 442 553 q 461 617 472 638 q 482 659 503 659 q 523 659 523 639 q 523 634 503 573 q 482 511 482 495 q 482 473 524 469 q 565 465 565 449 q 565 428 543 420 q 542 420 500 416 q 459 412 452 402 q 444 393 429 342 q 414 292 414 290 q 414 271 460 269 q 506 266 506 252 q 506 229 491 222 q 477 216 442 214 q 407 213 394 202 q 381 191 353 104 q 324 17 304 17 l 289 17 q 278 17 278 31 q 278 44 301 118 q 323 192 323 195 q 323 213 272 213 q 220 213 213 207 q 205 202 185 135 q 165 69 154 47 q 140 17 111 17 q 99 17 99 33 q 99 36 119 100 q 140 165 140 183 q 140 201 127 208 l 114 211 l 98 213 l 84 216 q 64 223 64 239 q 64 256 88 264 q 93 266 125 268 q 157 270 168 277 q 179 285 193 332 q 208 378 208 395 q 208 411 164 416 q 120 420 120 436 z"},",":{"x_min":0,"x_max":262,"ha":262,"o":"m 8 -123 l 8 -117 q 8 -116 25 -99 q 43 -81 62 -59 q 80 -36 80 -15 q 80 5 70 24 q 60 42 60 60 q 60 78 76 92 q 92 107 115 107 l 125 107 q 161 107 161 66 l 161 53 q 161 -5 117 -59 q 56 -134 23 -134 l 20 -134 q 8 -134 8 -123 z"},"n":{"x_min":0,"x_max":552,"ha":552,"o":"m 160 432 q 203 432 203 341 q 203 333 209 333 q 210 333 243 364 q 327 441 390 442 l 402 442 q 440 442 462 417 q 483 391 483 355 q 483 319 460 229 q 437 139 437 98 q 437 58 460 58 q 468 58 480 62 q 492 67 492 66 l 492 62 q 492 51 475 40 q 429 8 400 8 q 351 8 351 67 q 351 104 374 193 q 398 282 398 321 q 398 360 385 374 q 373 389 350 389 q 328 389 292 365 q 255 341 224 292 q 192 242 172 177 q 166 156 151 101 q 137 46 136 43 q 124 12 102 12 q 80 12 72 19 q 65 25 65 56 l 65 67 q 65 125 92 188 q 118 251 118 308 q 118 334 104 343 q 81 358 81 371 q 81 393 107 412 q 132 432 160 432 z"},"h":{"x_min":0,"x_max":538,"ha":538,"o":"m 136 644 q 136 661 149 670 q 175 689 210 689 l 221 689 q 235 689 248 677 q 261 664 261 644 q 261 624 233 517 q 206 410 206 390 q 206 371 218 371 q 226 371 248 384 l 261 394 q 321 434 366 434 q 412 434 437 409 q 462 383 462 347 q 462 310 438 180 q 428 130 428 57 q 428 55 434 52 q 439 49 439 45 q 439 42 425 29 q 410 17 380 17 q 351 17 343 30 q 334 42 334 64 q 334 85 359 179 q 384 273 384 313 q 384 353 368 368 q 353 383 331 383 q 310 383 278 361 q 247 338 208 284 q 170 230 144 100 q 131 39 126 29 q 112 4 88 4 q 64 4 59 15 q 53 25 53 66 q 53 106 76 172 q 99 238 135 391 q 172 544 172 596 q 172 610 154 624 q 136 637 136 644 z"},"z":{"x_min":0,"x_max":448,"ha":448,"o":"m 414 440 q 427 440 427 422 q 427 384 277 241 q 126 97 126 74 l 131 70 q 179 47 284 47 q 317 47 338 76 q 374 124 385 124 q 399 124 399 103 q 399 46 364 10 q 344 -10 300 -10 q 256 -10 189 2 q 123 14 99 14 q 76 14 56 9 q 36 4 26 4 q 17 4 17 17 l 17 26 q 17 55 170 208 q 324 362 324 377 q 324 384 249 384 q 173 384 157 376 q 141 368 121 342 q 102 315 90 315 q 76 315 76 335 q 76 399 108 429 q 125 444 167 444 l 181 444 q 196 444 246 438 q 297 432 329 432 q 361 432 383 436 q 405 440 414 440 z"},"B":{"x_min":0,"x_max":604,"ha":604,"o":"m 244 47 l 266 47 q 396 47 440 141 q 457 176 457 207 l 457 230 q 457 271 426 299 q 395 328 340 328 l 330 329 l 308 329 l 302 329 l 297 329 q 248 329 237 306 q 234 298 224 251 q 214 205 199 148 q 185 92 185 74 l 185 70 q 185 47 244 47 z m 275 376 l 302 376 q 436 376 477 462 q 491 493 491 518 l 491 540 q 491 578 462 601 q 434 625 389 625 l 356 625 q 314 625 302 601 q 300 598 276 495 q 252 393 252 390 l 252 387 q 252 376 275 376 z m 576 544 l 576 532 q 576 480 542 440 q 509 400 472 383 q 436 366 436 364 q 436 361 454 352 q 472 343 489 332 q 506 321 525 292 q 545 262 545 209 q 545 155 514 109 q 457 25 326 7 q 285 1 134 1 l 75 1 l 40 1 q 11 1 11 15 q 11 26 59 45 q 88 57 103 101 q 128 172 166 361 q 204 551 204 580 q 204 609 181 619 q 143 635 143 640 q 143 665 210 665 l 347 669 l 373 670 l 385 670 l 398 669 q 523 669 561 600 q 576 571 576 544 z"},"K":{"x_min":0,"x_max":654,"ha":654,"o":"m 367 652 q 367 649 344 633 q 322 617 311 593 q 300 569 280 488 q 259 406 259 392 q 259 378 274 378 q 303 378 381 449 q 518 573 518 605 l 517 618 l 506 639 q 506 666 563 666 l 605 666 q 680 666 680 655 q 680 643 639 618 q 619 605 557 552 q 495 500 435 441 q 375 383 375 357 q 375 331 395 299 q 416 268 453 197 q 490 127 504 106 q 518 85 539 64 q 561 43 574 34 q 587 24 587 18 q 587 -3 514 -3 l 493 -3 q 436 -3 418 27 q 412 37 409 68 q 405 99 398 125 q 392 151 361 208 q 330 266 295 291 q 282 300 268 300 q 246 300 231 261 q 203 182 203 96 q 203 69 219 46 q 235 23 235 21 q 235 5 201 1 q 192 0 111 0 q 31 0 31 16 q 31 19 75 50 q 99 66 113 114 q 118 129 143 256 q 167 383 187 466 q 207 550 207 572 q 207 595 202 601 q 197 607 173 617 q 148 628 148 635 q 148 650 161 656 q 173 661 224 661 l 347 664 q 367 664 367 652 z"},"R":{"x_min":0,"x_max":631,"ha":631,"o":"m 269 348 l 305 348 q 437 348 482 452 q 494 479 494 524 q 494 568 465 594 q 436 621 385 621 l 365 621 q 315 621 301 590 q 296 580 283 519 l 259 415 q 247 363 247 361 q 247 348 269 348 z m 361 667 q 467 667 516 636 q 577 599 577 512 q 577 463 551 425 q 524 386 490 363 q 428 319 428 316 q 428 293 445 253 q 461 212 476 161 q 491 110 504 84 q 516 59 537 48 q 582 24 582 16 q 582 -1 535 -1 l 519 -1 q 469 -1 448 20 q 426 42 399 133 q 373 223 357 251 q 330 300 274 300 q 237 300 230 281 q 200 197 200 83 q 200 57 214 42 l 222 35 q 240 24 240 18 q 240 1 130 1 q 21 1 21 17 q 21 38 58 49 q 95 60 105 95 q 116 131 129 205 q 143 279 175 416 q 207 553 207 582 q 207 610 177 624 q 147 638 147 647 q 147 666 250 666 l 329 667 z"},"T":{"x_min":0,"x_max":598,"ha":598,"o":"m 135 13 q 135 23 186 47 q 213 60 228 100 q 243 140 284 338 q 326 535 326 565 q 326 596 318 604 q 311 613 282 613 q 228 613 190 587 q 169 573 147 535 q 125 497 112 497 q 103 497 103 520 q 103 598 130 643 q 142 661 190 661 l 236 662 q 267 663 282 663 l 313 664 q 329 665 345 665 l 378 666 l 540 667 l 586 667 q 627 667 634 661 q 640 654 640 640 q 640 574 623 525 q 617 510 610 510 q 598 510 588 546 q 577 583 554 598 q 530 614 491 614 q 451 614 440 604 q 428 595 414 547 q 400 500 375 382 q 351 264 335 195 q 320 126 320 99 q 320 71 328 60 q 335 49 361 38 q 386 27 386 20 q 386 0 348 0 l 300 0 l 284 0 l 252 0 q 135 0 135 13 z"},"P":{"x_min":0,"x_max":580,"ha":580,"o":"m 387 621 l 367 621 q 315 621 303 596 q 298 585 282 511 q 267 437 255 394 q 244 351 244 342 l 244 338 q 244 326 287 326 l 316 326 q 441 326 487 429 q 502 463 502 494 l 502 515 q 502 565 471 593 q 441 621 387 621 z m 17 10 l 17 18 q 17 28 62 52 q 87 65 98 94 q 108 122 126 205 q 144 288 175 415 q 206 542 206 571 q 206 600 193 610 q 180 620 165 627 q 150 635 150 643 q 150 666 242 666 l 278 667 q 315 668 327 668 l 352 669 l 402 669 q 490 669 539 627 q 589 585 589 503 q 589 453 563 407 q 538 360 498 332 q 457 304 411 291 q 365 278 273 278 q 232 278 218 242 q 192 171 192 87 q 192 61 218 45 q 258 22 258 17 q 258 0 232 0 l 173 0 l 161 1 l 112 1 l 63 0 l 51 0 q 17 0 17 10 z"},"|":{"x_min":0,"x_max":368,"ha":368,"o":"m 175 700 q 175 739 196 739 l 206 739 q 226 739 230 733 q 235 726 235 690 l 224 123 q 224 113 224 103 l 223 74 q 223 64 223 54 l 219 -141 q 219 -180 197 -180 l 188 -180 q 168 -180 163 -173 q 158 -166 158 -131 l 159 -121 l 160 -82 q 160 -72 160 -62 l 161 -33 q 161 -23 161 -14 l 166 231 q 166 241 166 250 l 171 465 q 171 475 171 485 l 172 514 q 172 524 172 534 l 175 681 q 175 690 175 700 z"},"t":{"x_min":0,"x_max":335,"ha":335,"o":"m 330 422 q 330 411 277 395 q 224 379 211 357 q 198 336 175 234 q 152 132 152 98 q 152 63 186 63 q 201 63 233 76 q 264 88 269 88 q 281 88 281 70 q 281 51 248 33 q 181 -2 143 -2 l 134 -2 q 110 -2 90 20 q 70 42 70 71 l 70 81 q 70 98 98 223 q 126 348 126 366 q 126 385 101 396 q 76 406 76 420 q 76 432 109 440 q 143 448 150 458 q 157 467 167 500 q 178 532 185 542 q 204 567 222 567 l 228 567 q 247 567 247 540 l 242 488 q 242 460 261 448 q 268 444 299 440 q 330 437 330 422 z"},"M":{"x_min":0,"x_max":866,"ha":866,"o":"m 202 583 q 202 602 178 618 q 154 635 154 642 q 154 660 240 660 q 275 660 292 653 q 318 641 333 603 q 341 580 376 375 q 412 171 421 171 q 430 171 609 467 l 674 573 l 691 597 q 722 639 746 650 q 771 661 800 661 l 828 661 q 885 661 885 646 q 885 637 855 614 q 825 591 813 559 q 802 526 777 390 q 751 254 746 229 l 728 138 l 725 109 q 725 76 734 62 l 751 47 q 780 29 780 25 l 772 14 q 751 0 665 0 l 636 0 q 583 0 583 16 l 585 26 l 610 50 q 623 66 640 124 q 657 181 704 416 l 723 504 l 726 529 l 723 540 q 709 540 585 333 q 460 125 430 83 q 400 42 374 42 q 356 42 317 283 q 278 524 261 524 q 255 524 245 488 l 238 459 l 232 431 q 224 392 212 343 l 167 166 q 153 106 153 67 l 157 50 l 167 38 l 173 26 q 173 4 136 4 q 57 4 33 12 q 17 17 17 31 l 30 43 l 49 55 q 82 77 96 115 l 105 143 q 130 233 166 385 q 202 537 202 583 z"},"g":{"x_min":0,"x_max":438,"ha":438,"o":"m 192 -200 q 241 -200 280 -171 q 318 -142 318 -115 l 318 -105 q 318 -72 273 -51 q 228 -30 164 -30 l 160 -30 q 128 -30 74 -67 q 36 -94 36 -125 l 36 -131 l 36 -134 q 36 -164 70 -182 q 103 -200 137 -200 l 149 -201 l 180 -201 q 188 -200 192 -200 z m 271 398 l 260 398 q 219 398 185 340 q 150 281 150 215 l 150 211 q 150 179 164 159 q 178 140 199 140 l 210 140 q 250 140 284 197 q 318 255 318 323 l 318 337 q 318 398 271 398 z m 97 157 q 80 183 80 220 q 80 257 96 293 q 130 372 204 407 q 238 423 275 423 l 288 423 q 296 423 311 419 l 330 415 q 354 410 367 410 q 379 410 396 411 l 408 412 l 430 415 q 456 415 456 398 q 456 391 434 380 q 412 370 405 359 q 405 358 389 293 q 373 228 338 191 q 304 155 275 141 q 246 128 217 121 q 187 115 169 102 q 151 88 151 71 q 151 54 177 39 q 188 33 249 10 q 311 -12 328 -27 q 362 -55 362 -104 q 362 -154 307 -198 q 251 -241 170 -241 l 156 -241 q 83 -241 36 -209 q -11 -177 -11 -130 q -11 -100 4 -80 q 19 -61 58 -34 q 97 -6 97 -2 l 95 4 l 89 11 l 83 20 q 73 36 73 50 q 73 64 81 74 q 90 84 106 99 q 123 113 123 120 q 123 126 111 139 q 100 152 97 157 z"},"j":{"x_min":0,"x_max":280,"ha":280,"o":"m -51 -213 q -79 -213 -90 -202 q -101 -191 -101 -180 q -101 -168 -87 -159 q -74 -149 -40 -149 q -6 -149 17 -131 q 40 -112 55 -75 q 70 -37 111 138 q 151 314 151 344 q 151 374 139 382 q 134 385 107 389 q 80 393 80 406 q 80 416 91 423 q 136 453 212 453 l 220 453 q 244 453 244 422 l 244 413 q 244 383 194 174 q 145 -35 119 -88 q 94 -141 50 -177 q 5 -213 -43 -213 z m 192 597 l 192 605 l 192 606 l 194 618 q 194 620 194 621 q 194 636 208 650 q 222 664 245 664 l 250 664 q 287 664 287 645 l 289 632 l 289 618 l 287 606 q 287 589 274 576 q 262 563 250 563 l 242 562 l 228 562 l 215 564 q 192 564 192 597 z"},"i":{"x_min":0,"x_max":291,"ha":291,"o":"m 237 69 l 237 66 q 237 50 206 33 q 146 1 109 1 l 97 1 q 86 1 73 12 q 61 23 61 42 l 61 47 q 61 64 81 126 q 101 189 119 266 q 137 343 137 360 q 137 376 128 382 q 120 387 96 387 q 71 387 71 403 q 71 419 91 428 q 145 451 194 451 l 200 451 q 228 451 228 417 q 228 399 194 267 q 160 134 160 93 q 160 66 189 66 l 229 74 q 237 74 237 69 z m 216 561 q 180 561 180 583 q 179 586 179 587 l 178 594 l 178 605 l 180 619 q 180 632 192 647 q 203 661 217 661 q 221 662 223 662 l 229 663 l 240 663 l 252 661 q 273 661 273 643 l 274 640 l 276 625 l 276 622 l 275 620 l 275 617 l 275 612 l 272 601 q 272 587 260 575 q 247 562 233 562 l 225 561 z"},"y":{"x_min":0,"x_max":483,"ha":483,"o":"m 418 441 q 446 441 457 430 q 469 419 469 405 q 469 374 347 133 q 248 -62 124 -171 q 79 -211 39 -211 l 28 -211 q -12 -211 -12 -190 q -12 -184 42 -162 q 97 -140 136 -99 q 188 -47 188 12 q 188 40 166 116 q 145 192 134 250 q 122 309 118 321 q 114 333 101 351 q 87 369 82 375 q 77 380 77 383 q 77 385 92 397 q 128 427 153 427 q 182 427 196 369 q 210 311 220 203 q 230 96 241 96 q 267 96 321 200 q 376 304 376 364 l 369 416 q 369 441 418 441 z"},"@":{"x_min":0,"x_max":749,"ha":749,"o":"m 335 230 l 335 220 q 335 198 346 189 q 356 180 368 180 l 377 180 q 388 180 409 191 q 430 202 442 219 q 487 282 487 325 l 488 330 l 488 335 q 488 360 454 360 l 448 360 q 432 360 410 349 q 389 338 372 317 q 335 271 335 230 z m 79 258 q 79 327 110 398 q 142 469 198 522 q 255 576 321 601 q 388 625 447 625 q 569 625 643 561 q 716 496 716 396 q 716 297 664 228 q 641 196 607 173 q 574 150 542 150 q 510 150 498 157 l 487 167 l 483 177 l 479 184 l 470 181 l 439 158 q 402 134 381 134 q 337 134 317 162 q 297 191 297 229 q 297 267 312 300 q 327 333 345 353 q 378 390 438 390 q 451 390 478 398 q 505 406 511 406 q 526 406 526 382 l 516 346 q 500 287 500 240 q 500 208 525 208 q 543 208 562 217 q 600 237 630 284 q 661 330 661 400 q 661 469 602 522 q 544 575 453 575 q 323 575 232 476 q 192 432 167 370 q 143 309 143 250 q 143 70 282 11 q 336 -12 394 -12 q 452 -12 477 -3 q 502 5 523 15 q 545 25 545 20 q 545 2 485 -20 q 425 -41 367 -41 q 241 -41 160 38 q 79 117 79 258 z"},".":{"x_min":0,"x_max":260,"ha":260,"o":"m 51 32 l 51 43 q 51 68 65 86 q 80 103 96 103 l 105 104 l 118 104 q 161 104 161 63 l 161 58 l 158 39 q 158 26 145 10 q 131 -6 113 -6 q 109 -7 107 -7 l 100 -7 l 96 -7 l 81 -5 q 51 -5 51 32 z"},"p":{"x_min":0,"x_max":522,"ha":522,"o":"m 422 298 l 422 308 q 422 347 407 375 q 392 403 363 403 l 350 403 q 318 403 291 383 q 264 363 233 316 q 203 269 188 209 q 173 150 173 120 l 173 102 q 173 78 191 60 q 209 42 240 42 l 249 42 q 278 42 311 64 q 343 86 371 130 q 422 208 422 298 z m 97 401 q 97 408 106 413 q 149 435 174 435 q 200 435 206 425 q 220 401 221 401 q 229 401 247 415 q 264 430 277 436 q 310 453 361 453 l 372 453 q 426 453 462 413 q 498 374 498 309 l 498 297 q 498 247 473 188 q 421 66 320 21 q 275 0 227 0 l 205 2 l 185 2 q 148 2 135 -17 q 111 -49 111 -111 q 111 -131 123 -153 q 134 -174 134 -183 q 134 -191 116 -206 q 98 -220 64 -220 l 42 -220 q 18 -220 -4 -208 q -13 -202 -13 -192 q -13 -182 9 -144 q 30 -106 38 -81 q 45 -56 70 47 q 95 151 116 232 q 137 314 137 335 q 137 356 117 378 q 97 400 97 401 z"},"X":{"x_min":0,"x_max":644,"ha":644,"o":"m 403 73 q 403 121 343 248 q 330 275 324 275 q 312 275 234 181 q 155 87 155 64 q 155 49 165 41 q 192 16 192 15 q 192 -1 133 -1 l 25 -1 q -10 -1 -10 14 q -10 24 47 51 q 73 63 109 102 q 301 303 301 332 q 301 352 284 390 q 206 569 195 588 q 184 608 156 621 q 128 635 128 653 q 128 666 240 666 q 353 666 353 648 q 353 644 327 631 q 301 618 301 600 q 301 564 354 444 q 368 413 382 413 q 386 413 457 496 q 528 580 528 599 q 528 618 521 626 l 508 634 q 493 645 493 651 q 493 668 530 668 l 596 667 l 636 667 q 684 667 684 652 q 684 644 640 618 q 597 592 566 558 q 402 377 402 343 q 402 325 419 285 q 495 106 508 82 q 521 58 541 48 q 579 30 579 23 q 579 8 560 2 q 553 0 454 0 q 355 0 355 14 q 355 19 384 39 q 403 51 403 73 z"},"*":{"x_min":0,"x_max":437,"ha":437,"o":"m 195 519 q 195 522 170 543 q 145 563 145 590 q 145 607 171 607 q 187 607 216 584 q 245 562 254 562 q 260 562 265 605 q 270 648 278 665 q 286 682 312 682 q 331 682 331 655 q 331 641 317 604 q 304 566 304 560 q 304 554 308 554 q 312 554 351 574 q 389 593 407 593 q 426 593 426 571 q 426 539 362 517 q 343 510 343 504 q 343 498 357 468 q 371 438 371 438 q 371 413 351 413 q 350 413 327 421 q 305 430 299 430 q 293 430 287 419 q 281 408 278 405 q 264 392 233 392 q 214 392 214 414 q 214 436 206 436 q 181 436 168 433 q 155 430 151 430 q 145 430 145 438 l 145 444 q 145 460 180 493 q 195 507 195 519 z"},"Y":{"x_min":0,"x_max":599,"ha":599,"o":"m 261 260 q 261 353 192 527 q 172 578 155 592 l 144 599 l 122 610 q 106 620 106 629 q 106 638 115 642 q 153 658 270 658 q 291 658 291 645 q 291 643 275 634 q 260 625 260 609 q 260 568 332 370 q 337 353 344 353 q 351 353 406 430 q 514 581 514 612 q 514 621 505 633 q 495 645 495 647 q 495 665 537 665 l 552 665 q 663 665 663 648 q 663 631 624 614 q 584 596 562 569 q 477 469 387 323 q 359 278 346 235 q 320 147 320 90 q 320 63 340 48 q 343 45 363 36 q 382 27 382 17 q 382 0 242 0 l 178 -1 l 162 -1 q 135 -1 135 12 q 135 25 169 37 q 203 49 214 72 q 225 94 243 159 q 261 225 261 260 z"},"c":{"x_min":0,"x_max":432,"ha":432,"o":"m 287 446 l 306 446 q 357 446 394 429 q 420 417 420 393 l 420 385 q 420 365 408 351 q 396 337 388 337 q 380 337 352 366 q 324 396 288 396 q 222 396 171 328 q 147 296 132 251 q 116 205 116 156 q 116 108 143 77 q 169 46 214 46 q 258 46 329 85 q 354 99 358 99 q 374 99 374 85 q 374 81 354 60 q 335 40 287 15 q 239 -10 188 -10 q 119 -10 78 33 q 36 76 36 144 l 36 154 q 36 208 58 260 q 104 373 200 422 q 248 446 287 446 z"},"!":{"x_min":0,"x_max":298,"ha":298,"o":"m 121 99 q 160 99 160 73 q 161 70 161 68 l 162 60 l 162 53 l 160 40 q 160 22 146 8 q 131 -6 111 -6 l 94 -6 q 90 -5 86 -5 q 59 -5 59 19 q 58 21 58 23 l 57 30 l 57 39 l 59 55 q 59 67 72 82 q 84 97 97 97 q 102 98 104 98 l 113 99 z m 120 193 l 120 203 q 120 215 142 344 q 164 472 172 535 q 180 598 188 628 q 195 658 209 667 q 224 676 250 676 l 255 675 l 261 675 q 282 675 282 647 l 281 643 q 281 629 239 465 q 196 301 170 226 q 156 182 135 182 l 130 182 q 120 182 120 193 z"},"/":{"x_min":0,"x_max":395,"ha":395,"o":"m 417 696 q 446 696 447 682 q 447 673 391 574 q 334 474 209 246 q 85 19 75 0 q 37 -62 11 -62 q -16 -62 -15 -55 l -15 -48 q -15 -44 162 280 q 339 604 367 650 q 395 696 416 696 l 417 696 z"},"[":{"x_min":0,"x_max":350,"ha":350,"o":"m 403 686 q 403 675 355 663 q 306 651 304 650 q 287 640 271 598 q 255 556 193 260 q 131 -37 131 -62 q 131 -88 146 -98 q 151 -101 189 -110 q 228 -120 228 -130 q 228 -150 194 -150 l 172 -150 l 149 -149 l 113 -148 q 63 -148 54 -146 q 44 -143 44 -129 q 44 -114 125 266 q 207 647 211 661 q 221 691 240 697 q 253 701 321 701 l 356 701 l 379 702 l 390 702 q 403 702 403 686 z"},"6":{"x_min":0,"x_max":529,"ha":529,"o":"m 307 369 l 293 369 q 272 369 241 354 q 209 339 185 308 q 144 257 144 180 l 144 170 q 144 115 169 77 q 194 38 236 38 l 255 38 q 274 38 303 54 q 333 69 356 104 q 399 166 399 232 l 400 242 l 400 252 l 399 257 q 399 305 375 337 q 350 369 307 369 z m 195 392 q 195 382 219 382 q 223 382 238 388 l 259 397 q 287 407 315 407 q 389 407 432 358 q 475 310 475 226 q 475 182 454 135 q 416 46 336 11 q 297 -6 255 -6 q 248 -6 241 -6 q 205 -6 173 9 q 104 41 79 122 q 66 164 66 210 l 66 223 q 66 387 180 522 q 227 578 294 613 q 362 648 425 648 l 436 648 q 467 648 486 636 q 505 624 505 613 q 505 606 486 606 l 438 611 q 408 611 366 594 q 325 577 283 540 q 242 502 219 456 q 195 410 195 392 z"},"r":{"x_min":0,"x_max":385,"ha":385,"o":"m 206 419 q 214 407 214 370 q 214 332 216 332 q 219 332 228 344 q 297 432 355 432 q 386 432 386 409 l 386 404 q 386 385 362 370 q 352 364 321 364 q 290 364 271 348 q 251 332 225 289 q 199 246 188 214 q 178 182 168 118 q 159 55 156 48 q 136 0 96 0 l 87 0 q 57 0 57 30 l 57 37 q 57 53 93 171 q 128 288 128 337 q 128 357 107 367 q 85 377 85 392 q 85 407 98 417 q 127 441 159 441 q 190 441 206 419 z"},"2":{"x_min":0,"x_max":522,"ha":522,"o":"m 35 24 q 35 50 96 119 q 129 156 228 243 q 326 330 353 362 q 403 424 403 488 q 403 536 372 561 q 342 586 302 586 q 263 586 234 569 q 206 552 181 521 q 156 490 137 490 q 127 490 127 505 q 127 521 145 552 q 198 646 320 646 q 401 646 445 602 q 488 558 488 492 q 488 425 432 357 q 398 315 272 213 q 146 110 146 87 q 146 71 236 71 q 326 71 379 97 q 409 111 419 111 q 432 111 432 95 q 432 44 399 17 q 381 1 301 1 l 270 1 l 95 6 q 35 6 35 24 z"},"{":{"x_min":0,"x_max":365,"ha":365,"o":"m 390 710 q 410 710 410 701 q 410 697 353 661 q 323 641 302 607 q 281 574 266 481 q 250 389 237 359 q 224 329 207 314 q 190 300 172 291 q 153 281 153 277 l 159 271 l 168 266 l 177 259 q 204 234 204 187 q 204 158 185 82 q 166 6 166 -32 q 166 -70 189 -98 q 198 -107 218 -121 q 237 -136 237 -149 q 237 -156 220 -156 q 160 -156 125 -126 q 90 -96 90 -40 q 90 -5 113 79 q 135 163 135 189 q 135 234 96 256 q 72 270 72 273 q 72 288 112 306 q 151 324 166 354 q 181 384 196 492 q 210 600 245 644 q 269 674 307 692 q 346 710 390 710 z"},"9":{"x_min":0,"x_max":529,"ha":529,"o":"m 267 280 l 280 280 q 305 280 338 297 q 370 314 387 337 q 427 393 427 457 l 427 486 q 427 537 401 573 q 375 609 336 609 l 322 609 q 297 609 269 593 q 240 577 220 547 q 174 480 174 411 l 174 390 q 174 344 199 312 q 224 280 267 280 z m 375 245 q 375 265 346 265 l 325 256 q 291 243 255 243 q 180 243 134 303 q 101 346 101 423 q 101 467 120 513 q 140 559 172 591 q 236 655 322 655 q 449 655 490 533 q 505 487 505 431 l 505 418 l 505 405 q 505 329 471 250 q 403 94 279 31 q 208 -4 146 -4 l 135 -4 q 101 -4 82 10 q 63 24 63 34 q 63 43 95 43 l 137 39 q 165 39 208 56 q 295 89 343 167 q 375 220 375 245 z"}," ":{"x_min":0,"x_max":271,"ha":271,"o":""},"I":{"x_min":0,"x_max":357,"ha":357,"o":"m 28 -1 q 16 -1 16 5 l 16 12 q 16 24 46 38 q 77 52 88 63 q 99 75 114 118 q 128 162 169 359 q 209 557 209 586 q 209 615 183 625 q 146 639 146 648 q 146 667 182 667 l 202 667 l 212 667 l 361 667 l 381 667 q 393 667 393 661 l 393 653 q 393 643 363 629 q 333 615 321 602 q 308 589 292 539 q 277 489 238 301 q 200 112 200 87 q 200 61 212 50 q 216 46 239 36 q 262 26 262 17 q 262 -1 228 -1 l 218 0 l 176 0 l 155 0 l 144 0 l 123 0 l 111 0 l 90 0 l 48 -1 z"},"H":{"x_min":0,"x_max":742,"ha":742,"o":"m 12 11 q 12 32 50 47 q 88 63 102 106 q 116 149 155 347 q 195 544 195 571 q 195 598 173 611 q 142 631 142 640 q 142 656 313 656 q 369 656 369 637 q 369 634 344 622 q 319 610 306 583 q 293 556 275 483 q 257 411 257 384 q 257 362 471 362 q 552 362 565 390 q 569 397 584 473 q 599 549 599 576 q 599 604 578 624 q 556 644 556 649 q 556 667 754 667 q 786 667 786 657 q 786 640 748 624 q 710 609 694 564 q 689 548 640 329 q 591 110 591 91 q 591 71 602 62 l 618 54 l 636 47 l 650 37 q 650 16 636 11 q 628 8 523 8 q 419 8 419 19 q 419 29 447 46 q 475 62 493 109 q 540 231 540 292 q 540 317 530 323 q 520 329 389 329 q 257 329 239 312 q 230 304 223 272 q 190 138 190 99 q 190 60 205 44 l 215 36 q 230 24 230 20 q 230 0 67 0 q 12 0 12 11 z"},"4":{"x_min":0,"x_max":532,"ha":532,"o":"m 150 223 l 291 223 q 312 223 317 236 q 326 261 346 361 q 366 462 375 497 q 384 532 384 543 l 383 545 q 377 545 239 387 q 101 229 101 229 l 101 226 q 101 223 150 223 z m 475 613 q 475 595 443 448 q 412 301 412 277 q 412 252 443 236 q 473 219 473 205 q 473 202 450 179 q 428 157 426 154 q 385 95 385 92 q 385 88 391 73 q 397 59 397 52 q 397 21 373 2 q 348 -16 298 -16 l 276 -16 q 250 -16 240 -5 q 229 6 229 21 q 229 35 253 57 q 277 79 277 104 q 277 149 245 160 q 224 167 151 167 q 79 167 66 170 q 35 179 35 205 q 35 232 351 578 q 411 644 443 644 q 475 644 475 613 z"},"~":{"x_min":0,"x_max":545,"ha":545,"o":"m 61 221 q 61 260 101 295 q 141 331 185 331 q 229 331 291 297 q 353 263 382 263 q 411 263 436 290 q 477 333 480 333 q 503 333 503 312 q 503 270 455 230 q 421 202 381 202 q 342 202 277 236 q 212 270 183 270 q 155 270 127 243 q 85 200 83 200 q 61 200 61 221 z"},"D":{"x_min":0,"x_max":709,"ha":709,"o":"m 404 623 l 386 623 l 377 622 q 312 622 302 588 q 300 581 271 444 q 242 307 215 198 q 189 89 189 74 l 189 67 q 189 47 272 47 l 281 47 q 413 47 500 144 q 545 193 570 267 q 595 341 595 398 l 595 424 q 595 513 545 568 q 496 623 404 623 z m 190 618 q 149 641 149 647 q 149 667 209 667 l 233 668 q 245 668 257 668 l 270 669 q 282 669 293 669 l 317 670 l 354 671 l 393 671 q 531 671 603 609 q 639 577 662 524 q 686 470 686 421 l 686 409 q 686 329 653 249 q 621 169 562 112 q 503 55 430 28 q 357 0 257 0 l 183 0 l 171 1 l 113 1 l 65 0 l 31 0 q 13 0 13 14 q 13 27 60 46 q 90 58 107 106 q 125 154 167 356 q 209 558 209 583 q 209 607 190 618 z"},"^":{"x_min":0,"x_max":527,"ha":527,"o":"m 480 325 q 480 315 460 315 l 454 315 q 432 315 410 349 q 389 383 338 482 q 287 580 281 580 q 279 580 224 484 q 169 387 143 352 q 118 316 94 316 q 71 316 71 324 q 71 329 80 344 q 89 359 169 500 q 250 641 253 645 q 264 662 287 662 q 311 662 328 632 q 346 601 388 514 q 430 427 455 378 q 480 330 480 325 z"},"0":{"x_min":0,"x_max":532,"ha":532,"o":"m 225 37 q 229 37 233 37 q 266 37 300 66 q 371 126 410 297 q 431 387 431 441 l 432 455 l 432 470 l 432 478 q 432 539 408 571 q 385 604 347 604 q 343 604 339 604 q 306 604 272 575 q 200 513 160 339 q 139 246 139 186 l 139 164 q 139 104 163 70 q 187 37 225 37 z m 342 650 l 360 650 q 461 650 499 544 q 513 505 513 459 l 513 431 q 513 356 485 262 q 432 83 320 18 q 272 -10 222 -10 l 213 -10 q 145 -10 102 43 q 60 96 60 183 l 60 211 q 60 293 89 383 q 118 473 156 530 q 194 586 245 618 q 296 650 342 650 z"},"F":{"x_min":0,"x_max":558,"ha":558,"o":"m 29 31 q 29 45 66 62 q 102 79 114 117 q 120 135 161 338 q 203 542 203 563 q 203 584 183 602 l 173 609 l 163 615 q 149 625 149 629 q 149 647 178 654 q 236 666 440 666 l 490 666 q 557 666 571 658 q 585 650 585 614 l 585 584 q 585 526 566 526 q 560 526 548 557 q 536 588 515 598 q 475 616 385 616 q 341 616 307 563 q 291 537 275 481 q 259 424 259 411 q 259 397 269 389 q 290 372 328 372 q 367 372 385 381 q 402 391 421 407 q 439 424 445 424 q 464 424 464 400 q 464 338 445 292 q 425 247 399 247 q 397 247 375 271 q 352 296 321 296 q 291 296 263 283 q 234 270 229 255 q 205 198 205 90 q 205 42 231 24 q 241 18 241 17 q 241 3 208 3 l 193 3 q 78 3 41 21 q 29 26 29 31 z"},"`":{"x_min":0,"x_max":391,"ha":391,"o":"m 143 672 l 143 676 q 143 695 176 695 l 179 695 q 219 695 283 600 q 312 556 312 550 l 312 546 q 312 537 297 537 l 293 537 q 270 537 207 600 q 143 664 143 672 z"},"k":{"x_min":0,"x_max":499,"ha":499,"o":"m 451 423 l 451 415 q 451 409 405 380 q 359 351 327 322 q 294 294 294 266 q 294 239 316 186 q 337 133 356 104 q 385 62 433 62 q 447 62 447 52 q 447 43 421 26 q 395 8 364 8 q 333 8 317 28 q 301 47 260 129 q 219 211 208 211 q 170 211 147 119 q 132 60 127 51 q 110 19 85 19 q 60 19 53 29 q 47 38 47 62 q 47 86 74 169 q 74 170 121 368 q 167 566 167 607 q 167 628 143 645 q 119 662 119 674 l 125 681 q 150 697 216 697 l 230 697 q 259 697 259 667 q 259 659 227 521 q 195 383 195 341 q 195 299 215 299 q 243 299 283 350 q 324 402 352 418 q 380 434 415 434 q 451 434 451 423 z"},"u":{"x_min":0,"x_max":546,"ha":546,"o":"m 71 99 q 71 122 99 234 q 127 347 127 358 q 127 382 105 387 q 69 395 69 402 l 69 406 q 69 409 83 416 q 129 439 170 439 q 190 439 198 425 q 207 412 207 383 q 207 355 182 257 q 157 159 157 120 q 157 53 204 53 q 227 53 265 81 q 344 140 380 274 l 388 300 q 389 304 398 341 l 402 355 l 404 368 q 410 395 415 403 q 425 426 447 426 q 448 426 454 417 q 471 394 471 338 q 471 333 453 257 q 436 182 436 154 q 436 127 455 111 q 475 94 475 74 l 475 65 q 475 50 456 32 q 438 14 408 14 q 379 14 363 39 q 354 54 354 96 q 354 114 345 114 q 341 114 306 80 q 224 1 157 1 q 71 1 71 99 z"},"]":{"x_min":0,"x_max":352,"ha":352,"o":"m -28 -141 q -28 -123 22 -111 q 73 -99 83 -90 q 94 -81 110 -34 q 125 12 185 299 q 245 585 245 614 q 245 643 229 651 q 225 654 187 663 q 149 671 149 685 q 149 702 174 702 l 197 702 l 208 702 q 219 701 230 701 l 266 701 q 312 701 322 697 q 332 693 332 678 l 332 668 q 332 663 310 557 l 305 534 q 298 505 297 499 l 292 476 q 286 447 233 195 q 180 -58 168 -97 q 156 -136 144 -142 q 132 -148 53 -148 l 17 -149 l 5 -150 l -6 -150 q -28 -150 -28 -141 z"},"U":{"x_min":0,"x_max":705,"ha":705,"o":"m 346 653 q 346 649 319 631 q 292 612 279 572 q 266 531 231 376 q 196 220 196 166 q 196 111 232 77 q 268 42 340 42 q 390 42 433 68 q 475 93 503 147 q 531 200 565 359 q 600 517 600 583 q 600 605 593 617 q 585 628 573 638 q 561 647 561 651 q 561 668 610 668 l 703 668 q 756 668 756 652 q 756 633 721 617 q 686 601 678 582 q 676 577 628 366 q 580 155 544 102 q 470 -10 325 -10 q 164 -10 124 105 q 114 134 114 181 q 114 229 150 386 q 187 544 187 583 q 187 604 165 614 q 130 630 130 636 q 130 649 139 656 q 149 662 203 662 l 312 665 q 346 665 346 653 z"},"o":{"x_min":0,"x_max":490,"ha":490,"o":"m 129 158 l 129 147 q 129 95 152 67 q 174 38 211 38 l 217 38 q 274 38 326 110 q 355 150 371 203 q 386 256 386 289 l 386 305 q 386 350 366 381 q 346 413 309 413 l 299 413 q 270 413 239 391 q 207 369 184 333 q 129 249 129 158 z m 310 457 l 331 457 q 388 457 427 414 q 466 370 466 303 l 466 289 q 466 236 443 182 q 395 69 299 19 q 252 -6 207 -6 l 192 -6 q 132 -6 91 35 q 50 76 50 142 l 50 163 q 50 270 135 369 q 168 407 216 432 q 264 457 310 457 z"},"N":{"x_min":0,"x_max":724,"ha":724,"o":"m 50 47 q 86 65 101 105 q 105 118 149 324 q 192 530 192 561 q 192 593 167 606 q 135 625 135 639 q 135 659 213 659 q 274 659 308 609 q 349 548 439 349 q 529 150 534 150 q 540 150 551 189 q 562 229 594 390 q 625 551 625 578 q 625 604 602 625 q 580 646 580 649 q 580 667 645 667 l 667 667 l 689 666 q 770 666 770 652 q 770 639 736 615 q 703 591 690 555 q 686 542 631 297 l 606 180 q 598 145 591 110 l 577 41 q 566 5 545 5 q 519 5 481 76 q 469 99 368 317 q 267 536 251 536 l 246 521 l 242 500 q 234 461 229 433 q 223 406 207 325 q 190 245 177 176 q 163 107 163 85 q 163 62 183 41 q 203 19 203 18 q 203 1 146 1 l 124 1 l 102 2 l 79 2 l 36 2 q 13 2 13 15 q 13 29 50 47 z"},"+":{"x_min":0,"x_max":560,"ha":560,"o":"m 73 248 l 73 256 q 73 287 89 290 q 100 292 174 292 q 249 292 253 293 q 263 296 263 329 q 263 445 274 482 q 278 496 309 496 q 331 496 331 457 l 329 421 q 323 313 323 303 q 323 293 414 293 q 505 293 505 275 l 505 266 q 505 243 495 239 q 484 234 407 234 q 329 234 322 231 q 315 228 315 212 q 315 93 304 41 q 300 27 270 27 q 248 27 248 65 l 251 138 q 255 210 255 219 q 255 227 249 230 q 243 234 158 234 q 73 234 73 248 z"},"G":{"x_min":0,"x_max":692,"ha":692,"o":"m 669 610 l 669 594 q 669 535 651 506 q 646 497 633 497 q 630 497 609 536 q 588 575 565 592 q 521 625 459 625 q 337 625 255 529 q 212 479 187 410 q 161 341 161 277 q 161 112 271 61 q 305 44 367 44 q 429 44 464 75 q 500 106 500 193 q 500 221 492 235 q 485 249 465 258 q 444 268 444 275 q 444 288 550 288 q 655 288 655 272 q 655 258 633 238 q 611 218 605 204 q 598 190 580 119 q 562 48 547 34 q 532 21 495 14 q 360 -10 353 -10 l 333 -10 q 332 -10 331 -10 q 223 -10 146 66 q 70 143 70 271 q 70 344 99 419 q 128 493 183 552 q 239 612 312 644 q 384 675 463 675 q 477 675 547 662 q 618 649 637 647 q 656 645 658 644 q 669 637 669 610 z"},"q":{"x_min":0,"x_max":511,"ha":511,"o":"m 385 338 l 385 352 q 385 377 365 394 q 345 411 318 411 l 310 411 q 244 411 185 326 q 155 285 141 233 q 126 180 126 150 l 126 136 q 126 100 140 77 q 154 54 178 54 l 187 54 q 215 54 253 80 q 291 105 321 149 q 352 193 369 246 q 385 298 385 338 z m 317 453 q 344 453 379 438 q 413 423 417 423 q 420 423 437 436 q 453 448 465 448 q 489 448 489 417 l 489 409 q 489 399 473 357 q 458 315 449 284 q 440 252 401 80 q 361 -93 361 -125 q 361 -156 376 -167 q 402 -186 402 -190 q 402 -194 394 -200 q 375 -215 305 -215 l 294 -215 q 234 -215 234 -197 q 234 -185 253 -158 q 272 -131 280 -108 q 323 16 323 66 q 323 72 320 72 q 317 72 260 41 q 204 9 156 9 q 107 9 78 44 q 48 79 48 124 l 48 149 q 48 204 76 263 q 129 377 218 427 q 262 453 306 453 z"},"d":{"x_min":0,"x_max":535,"ha":535,"o":"m 121 141 l 121 127 q 121 86 137 67 q 153 47 180 47 l 184 48 q 211 48 247 73 q 283 97 315 142 q 348 187 364 240 q 379 292 379 326 l 379 349 q 379 374 361 389 q 342 405 315 405 l 301 405 q 240 405 180 322 q 158 291 139 237 q 121 184 121 141 z m 452 608 q 452 633 438 642 q 410 662 410 667 q 410 674 422 681 q 460 699 489 699 q 518 699 525 694 q 541 683 541 658 l 541 648 q 541 639 477 390 q 414 141 414 105 q 414 82 436 76 q 468 68 468 59 q 468 45 453 34 q 420 9 383 9 q 363 9 341 43 q 319 77 318 77 q 312 77 256 41 q 200 4 153 4 q 106 4 76 40 q 46 76 46 133 l 46 147 q 46 200 70 255 q 124 380 220 429 q 264 452 306 452 l 393 442 q 413 442 425 472 q 452 540 452 608 z"},"1":{"x_min":0,"x_max":500,"ha":500,"o":"m 276 516 q 276 552 229 552 q 229 552 227 552 q 203 551 195 551 q 174 551 174 565 q 174 574 199 585 q 315 637 358 637 l 366 637 q 385 637 385 618 q 385 603 363 515 q 341 427 310 269 q 278 112 278 94 q 278 77 289 64 q 300 52 332 41 q 363 29 363 15 q 363 0 202 0 l 160 0 l 107 0 q 65 0 65 8 l 65 14 q 65 27 106 41 q 148 54 163 66 q 179 78 193 116 q 208 153 242 325 q 276 496 276 516 z"},"5":{"x_min":0,"x_max":517,"ha":517,"o":"m 194 425 q 194 407 270 400 q 346 394 398 350 q 449 306 449 220 q 449 176 429 130 q 409 83 370 47 q 331 11 281 -8 q 230 -26 185 -26 l 169 -26 q 103 -26 67 0 q 31 26 31 66 q 31 85 52 85 q 72 85 95 62 q 118 39 125 35 q 147 23 192 23 q 193 23 194 23 q 262 23 313 74 q 365 126 365 203 q 365 237 350 265 q 335 292 314 308 q 268 340 180 340 q 149 340 134 356 q 127 364 127 379 q 127 394 157 490 q 187 585 197 603 q 208 621 223 629 q 239 636 279 636 l 373 634 q 395 634 418 635 l 462 638 l 474 638 q 507 638 507 619 q 507 583 474 569 q 452 561 381 561 l 307 562 q 256 562 238 538 q 194 479 194 425 z"}}}
